<?xml version="1.0" standalone="no"?>
<!DOCTYPE svg PUBLIC "-//W3C//DTD SVG 20010904//EN"
 "http://www.w3.org/TR/2001/REC-SVG-20010904/DTD/svg10.dtd">
<svg version="1.0" xmlns="http://www.w3.org/2000/svg"
 width="512.000000pt" height="512.000000pt" viewBox="0 0 512.000000 512.000000"
 preserveAspectRatio="xMidYMid meet">
<metadata>
Created by potrace 1.11, written by Peter Selinger 2001-2013
</metadata>
<g transform="translate(0.000000,512.000000) scale(0.100000,-0.100000)"
fill="#000000" stroke="none">
<path d="M2175 4839 c-198 -121 -416 -254 -485 -296 -69 -41 -194 -117 -278
-169 -85 -52 -158 -94 -163 -94 -5 0 -9 -4 -9 -10 0 -5 -4 -10 -9 -10 -5 0
-74 -40 -153 -89 -78 -49 -238 -146 -355 -217 -116 -70 -217 -138 -224 -150
-8 -17 -11 -328 -11 -1256 0 -679 2 -1243 6 -1254 3 -11 45 -44 93 -73 147
-91 739 -451 1208 -736 171 -103 326 -198 345 -210 165 -105 406 -246 424
-247 14 -1 237 129 586 342 311 189 574 348 585 354 11 6 22 13 25 16 3 3 43
29 90 57 170 101 686 416 736 449 29 18 54 41 58 50 3 8 6 572 6 1253 0 1091
-2 1239 -15 1258 -9 12 -82 62 -163 111 -81 49 -385 234 -677 412 -291 178
-633 386 -760 463 -126 77 -277 169 -334 204 -71 43 -114 63 -135 62 -22 0
-135 -64 -391 -220z m561 -17 c71 -43 338 -206 594 -362 256 -156 573 -349
705 -429 132 -81 288 -175 347 -211 58 -35 113 -75 121 -89 13 -23 15 -174 15
-1190 l0 -1163 -27 -28 c-14 -15 -125 -87 -246 -160 -121 -73 -312 -189 -425
-258 -113 -69 -217 -132 -232 -141 -26 -15 -494 -300 -813 -495 -193 -118
-203 -123 -246 -100 -19 9 -175 103 -346 208 -172 105 -321 196 -331 201 -165
93 -1216 744 -1224 759 -8 14 -11 371 -11 1188 0 1095 1 1169 17 1187 10 11
66 48 124 84 207 124 1081 656 1432 871 304 186 359 216 386 212 17 -2 89 -40
160 -84z"/>
<path d="M1658 4040 c-24 -14 -50 -144 -51 -248 0 -51 7 -119 18 -165 l19 -77
-22 -28 c-125 -154 -167 -312 -166 -632 1 -231 30 -345 126 -491 99 -151 265
-253 536 -329 56 -16 107 -32 112 -35 4 -3 -2 -24 -15 -48 -28 -51 -56 -155
-58 -214 -1 -26 -37 -45 -110 -57 -91 -16 -149 -14 -222 10 -89 27 -151 78
-257 210 -129 162 -189 201 -324 209 -77 5 -91 -31 -28 -74 52 -36 146 -163
219 -296 86 -157 163 -241 269 -294 105 -54 198 -64 416 -49 l35 3 1 -182 c1
-133 4 -186 14 -198 11 -13 61 -15 402 -15 l388 1 0 372 c-1 434 -6 469 -88
628 -1 4 23 10 55 14 200 25 414 132 545 273 68 74 137 197 153 272 1 3 8 32
15 65 16 66 20 364 7 450 -4 28 -10 73 -13 100 -13 106 -60 212 -128 290 -41
46 -41 49 -21 107 34 103 38 223 9 341 -27 110 -46 117 -171 55 -64 -32 -155
-113 -230 -205 l-34 -41 -52 23 c-118 54 -162 60 -447 60 -285 0 -335 -7 -457
-61 l-52 -22 -37 46 c-89 112 -180 185 -273 222 -59 23 -60 23 -83 10z"/>
</g>
</svg>
